<svg width="27" height="28" viewBox="0 0 27 28" fill="none" xmlns="http://www.w3.org/2000/svg">
<path d="M3.54541 7.34496H5.77917M5.77917 7.34496H23.6493M5.77917 7.34496V22.9813C5.77917 23.5737 6.01451 24.1419 6.43342 24.5608C6.85233 24.9797 7.4205 25.215 8.01293 25.215H19.1817C19.7742 25.215 20.3423 24.9797 20.7612 24.5608C21.1802 24.1419 21.4155 23.5737 21.4155 22.9813V7.34496M9.12981 7.34496V5.1112C9.12981 4.51877 9.36515 3.95061 9.78406 3.53169C10.203 3.11278 10.7711 2.87744 11.3636 2.87744H15.8311C16.4235 2.87744 16.9917 3.11278 17.4106 3.53169C17.8295 3.95061 18.0649 4.51877 18.0649 5.1112V7.34496M11.3636 12.9294V19.6306M15.8311 12.9294V19.6306" stroke="#BA1A1A" stroke-width="2.23376" stroke-linecap="round" stroke-linejoin="round"/>
</svg>
